<svg width="763" height="762" viewBox="0 0 763 762" fill="none" xmlns="http://www.w3.org/2000/svg">
<path d="M555.732 250.958C555.443 250.994 555.15 250.994 554.86 250.958C540.592 247.287 531.208 233.364 526.639 226.507C521.421 229.551 515.37 230.885 509.346 230.319C503.321 229.754 497.629 227.317 493.079 223.356C490.225 220.876 487.897 217.856 486.232 214.472C484.566 211.089 483.597 207.409 483.381 203.65C483.186 200.787 483.445 197.912 484.149 195.13C481.601 193.728 479.44 191.725 477.856 189.299C476.272 186.872 475.314 184.095 475.066 181.214C474.817 178.333 475.287 175.435 476.433 172.777C477.579 170.118 479.366 167.78 481.637 165.969C484.843 163.445 488.813 162.066 492.905 162.056C492.886 161.802 492.886 161.548 492.905 161.294C492.651 157.533 493.476 153.777 495.284 150.462C497.092 147.147 499.809 144.409 503.12 142.564C506.431 140.719 510.201 139.844 513.993 140.039C517.785 140.234 521.444 141.491 524.545 143.666C529.585 138.353 536.49 135.167 543.83 134.767C551.17 134.368 558.384 136.786 563.978 141.521C569.572 146.256 573.118 152.945 573.882 160.204C574.646 167.462 572.569 174.735 568.082 180.515C570.241 184.935 570.563 190.02 568.976 194.673C567.39 199.326 564.024 203.172 559.605 205.381C559.674 206.118 559.674 206.861 559.605 207.598C559.301 210.338 558.246 212.943 556.555 215.129C554.863 217.315 552.6 218.999 550.011 219.996C551.187 229.058 554.176 237.795 558.802 245.694C559.124 246.218 559.299 246.817 559.311 247.43C559.322 248.044 559.169 248.649 558.867 249.185C558.566 249.72 558.126 250.167 557.594 250.478C557.061 250.79 556.455 250.955 555.837 250.958H555.732ZM527.546 218.161C528.07 218.163 528.586 218.283 529.057 218.51C529.528 218.738 529.942 219.069 530.267 219.477C530.755 220.065 531.453 221.104 532.325 222.42C536.459 229.238 541.815 235.248 548.128 240.152C544.896 232.964 543.163 225.2 543.034 217.329C543.021 216.509 543.301 215.711 543.825 215.077C544.349 214.443 545.082 214.014 545.895 213.866C547.703 213.574 549.365 212.701 550.625 211.381C551.885 210.061 552.674 208.367 552.872 206.559C552.941 205.617 552.859 204.67 552.628 203.754C552.427 202.91 552.552 202.022 552.978 201.265C553.404 200.509 554.101 199.938 554.93 199.667C557.458 198.851 559.642 197.225 561.138 195.043C562.635 192.862 563.359 190.249 563.198 187.615C563.064 185.54 562.391 183.536 561.244 181.797C560.822 181.164 560.621 180.412 560.671 179.654C560.721 178.897 561.021 178.178 561.523 177.606C563.353 175.418 564.728 172.892 565.568 170.173C566.407 167.454 566.696 164.597 566.416 161.766C566.136 158.936 565.294 156.189 563.937 153.684C562.581 151.18 560.738 148.967 558.514 147.174C556.291 145.381 553.731 144.043 550.984 143.239C548.236 142.435 545.355 142.179 542.507 142.487C539.66 142.796 536.902 143.662 534.394 145.035C531.885 146.408 529.676 148.262 527.894 150.489C527.588 150.886 527.198 151.212 526.753 151.445C526.307 151.678 525.816 151.813 525.313 151.839C524.811 151.871 524.308 151.795 523.838 151.616C523.368 151.436 522.943 151.158 522.592 150.8C521.255 149.409 519.621 148.331 517.81 147.648C515.999 146.965 514.057 146.693 512.126 146.852C508.652 147.084 505.411 148.67 503.11 151.266C500.81 153.861 499.636 157.254 499.847 160.705C499.962 162.146 500.303 163.56 500.859 164.896C501.127 165.516 501.207 166.2 501.09 166.864C500.972 167.529 500.661 168.145 500.196 168.636C499.73 169.12 499.132 169.459 498.476 169.613C497.82 169.766 497.133 169.728 496.498 169.502C495.697 169.215 494.866 169.017 494.021 168.913C491.398 168.68 488.779 169.408 486.659 170.96C484.539 172.513 483.066 174.782 482.516 177.339C481.967 179.897 482.379 182.565 483.676 184.841C484.973 187.117 487.065 188.843 489.556 189.693C490.004 189.839 490.417 190.074 490.771 190.384C491.125 190.693 491.411 191.071 491.614 191.494C491.796 191.921 491.89 192.38 491.89 192.844C491.89 193.308 491.796 193.768 491.614 194.195C490.355 197.565 489.965 201.193 490.48 204.751C490.995 208.308 492.398 211.681 494.562 214.563C496.725 217.444 499.581 219.742 502.868 221.248C506.156 222.753 509.77 223.418 513.382 223.182C517.727 222.916 521.887 221.346 525.313 218.68C525.977 218.262 526.764 218.079 527.546 218.161Z" fill="#307D99"/>
<path d="M510.451 192.855C509.614 192.855 508.812 192.486 508.22 191.829C507.628 191.173 507.295 190.283 507.295 189.354C507.295 184.579 509.003 179.998 512.044 176.618C515.086 173.238 519.211 171.334 523.516 171.325C524.353 171.325 525.156 171.694 525.748 172.351C526.34 173.007 526.672 173.897 526.672 174.826C526.672 175.754 526.34 176.645 525.748 177.301C525.156 177.958 524.353 178.327 523.516 178.327C520.885 178.336 518.365 179.502 516.507 181.569C514.65 183.636 513.607 186.435 513.607 189.354C513.607 190.283 513.275 191.173 512.683 191.829C512.091 192.486 511.288 192.855 510.451 192.855Z" fill="#307D99"/>
<path d="M628.695 310.823C627.897 311.173 626.982 311.168 626.15 310.807C625.319 310.446 624.64 309.76 624.262 308.9C622.781 305.565 622.205 301.909 622.6 298.353C622.996 294.798 624.347 291.488 626.497 288.807C626.755 288.425 627.089 288.107 627.476 287.874C627.864 287.64 628.297 287.496 628.75 287.451C629.202 287.405 629.664 287.459 630.107 287.609C630.549 287.758 630.962 288.001 631.32 288.321C631.678 288.641 631.974 289.032 632.189 289.469C632.403 289.907 632.532 290.381 632.567 290.862C632.602 291.344 632.543 291.822 632.393 292.268C632.242 292.713 632.005 293.116 631.694 293.451C630.298 295.155 629.413 297.268 629.142 299.544C628.87 301.821 629.223 304.167 630.16 306.311C630.529 307.149 630.582 308.087 630.309 308.928C630.036 309.77 629.458 310.449 628.695 310.823Z" fill="#307D99"/>
<path d="M674.813 313.825C668.592 316.569 661.588 316.987 655.055 315.005C653.351 316.787 651.316 318.215 649.064 319.21C644.873 321.038 640.16 321.298 635.773 319.943C631.385 318.587 627.61 315.705 625.124 311.815C623.435 312.163 621.692 312.164 619.997 311.819C618.303 311.473 616.693 310.788 615.264 309.803C602.075 312.864 589.285 328.62 589.225 328.915C588.791 329.457 588.207 329.854 587.546 330.058C586.884 330.262 586.176 330.262 585.512 330.059C584.847 329.856 584.257 329.459 583.815 328.919C583.373 328.378 583.1 327.718 583.031 327.024C581.565 312.069 591.611 298.209 596.563 291.464C592.711 288.275 589.729 284.151 587.901 279.486C586.073 274.821 585.46 269.77 586.121 264.817C586.782 259.864 588.695 255.173 591.677 251.193C594.659 247.214 598.611 244.077 603.155 242.085C606.791 240.49 610.724 239.68 614.702 239.706L614.84 239.414C615.131 238.653 615.499 237.924 615.941 237.241L616.26 236.755C616.683 236.109 617.15 235.494 617.658 234.912L618.151 234.389C618.766 233.744 619.436 233.154 620.154 232.626L620.6 232.43C621.458 231.839 622.365 231.325 623.312 230.894C627.037 229.258 631.243 229.085 635.11 230.408C638.976 231.731 642.223 234.455 644.216 238.047C645.119 237.466 646.067 236.959 647.052 236.533C650.561 234.992 654.439 234.484 658.238 235.07C662.036 235.656 665.601 237.311 668.519 239.843C671.437 242.376 673.589 245.683 674.727 249.382C675.865 253.081 675.943 257.022 674.95 260.748C680.065 263.088 684.407 266.866 687.452 271.623C690.496 276.381 692.113 281.914 692.105 287.555C692.098 293.195 690.467 298.701 687.41 303.406C684.353 308.11 680.001 311.813 674.88 314.065L674.813 313.825ZM652.405 307.755C652.824 307.568 653.276 307.467 653.735 307.456C654.194 307.446 654.651 307.527 655.08 307.695C657.853 308.834 660.823 309.395 663.809 309.344C666.795 309.293 669.736 308.63 672.451 307.396C675.166 306.162 677.6 304.383 679.603 302.168C681.606 299.952 683.138 297.345 684.104 294.507C685.071 291.668 685.452 288.657 685.224 285.657C684.997 282.657 684.166 279.731 682.781 277.056C681.397 274.381 679.488 272.014 677.171 270.098C674.855 268.183 672.178 266.759 669.305 265.914C668.823 265.766 668.377 265.514 667.999 265.176C667.62 264.837 667.319 264.421 667.115 263.956C666.91 263.491 666.808 262.987 666.816 262.48C666.823 261.973 666.939 261.474 667.156 261.018C668.585 258.099 668.905 254.747 668.054 251.591C667.204 248.436 665.242 245.692 662.536 243.874C659.83 242.056 656.566 241.288 653.355 241.715C650.143 242.142 647.205 243.733 645.09 246.192C644.655 246.688 644.087 247.049 643.453 247.231C642.82 247.414 642.146 247.412 641.512 247.225C640.888 247.04 640.327 246.683 639.891 246.196C639.455 245.708 639.162 245.109 639.045 244.466C639.02 244.153 638.961 243.844 638.869 243.544C638.772 243.057 638.627 242.58 638.435 242.121C637.422 239.814 635.544 238 633.213 237.078C630.882 236.156 628.289 236.201 626.005 237.203C625.482 237.438 624.983 237.722 624.513 238.05L622.078 235.277L624.194 238.19C623.784 238.496 623.397 238.833 623.038 239.197L620.164 237.155L622.79 239.498C622.501 239.82 622.23 240.157 621.978 240.508L621.758 240.873C621.533 241.269 621.331 241.678 621.154 242.099L620.941 242.653C620.77 243.077 620.645 243.518 620.568 243.97C620.403 244.825 619.927 245.586 619.233 246.103C618.539 246.621 617.676 246.859 616.813 246.77C613.075 246.362 609.303 246.933 605.862 248.426C602.195 250.036 599.041 252.624 596.736 255.912C594.432 259.201 593.066 263.065 592.784 267.091C592.502 271.116 593.314 275.151 595.135 278.763C596.955 282.374 599.715 285.425 603.117 287.588C603.906 288.078 604.471 288.862 604.69 289.767C604.909 290.671 604.763 291.624 604.285 292.416C603.862 293.101 603.128 294.115 602.177 295.416C597.058 301.794 593.162 309.078 590.686 316.902C596.699 311.189 605.853 304.137 615.533 302.616C616.057 302.531 616.595 302.567 617.105 302.723C617.615 302.878 618.084 303.149 618.476 303.514C619.307 304.286 620.341 304.8 621.453 304.994C622.564 305.188 623.705 305.054 624.738 304.608C625.175 304.332 625.668 304.159 626.182 304.1C626.695 304.04 627.216 304.097 627.707 304.265C628.194 304.408 628.645 304.656 629.029 304.992C629.413 305.328 629.72 305.743 629.93 306.209C630.56 307.737 631.486 309.125 632.655 310.291C633.824 311.457 635.211 312.378 636.735 312.998C638.259 313.618 639.888 313.926 641.527 313.903C643.167 313.88 644.782 313.527 646.279 312.864C648.222 312.018 649.899 310.659 651.132 308.928C651.451 308.435 651.889 308.031 652.405 307.755Z" fill="#307D99"/>
<path d="M625.562 260.472C625.145 260.657 624.689 260.737 624.226 260.707C623.763 260.677 623.306 260.537 622.888 260.298C620.033 258.664 617.694 256.124 616.222 253.058C614.75 249.991 614.225 246.565 614.725 243.294C614.788 242.869 614.931 242.468 615.146 242.112C615.36 241.757 615.642 241.456 615.975 241.225C616.307 240.994 616.684 240.839 617.083 240.769C617.482 240.698 617.895 240.714 618.299 240.814C619.107 241.017 619.826 241.547 620.301 242.287C620.776 243.028 620.967 243.919 620.834 244.767C620.576 246.544 620.833 248.399 621.571 250.09C622.393 251.986 623.791 253.562 625.527 254.549C626.054 254.85 626.501 255.299 626.815 255.842C627.128 256.386 627.297 257.003 627.301 257.622C627.304 258.241 627.143 258.837 626.835 259.341C626.528 259.846 626.086 260.238 625.562 260.472Z" fill="#307D99"/>
<path d="M601.373 359.14C589.394 359.14 577.708 362.097 567.276 367.623C560.483 361.01 553.014 355.001 544.918 349.726L222.385 349.725C214.287 355.001 206.818 361.009 200.024 367.623C189.592 362.098 177.907 359.141 165.928 359.141C125.715 359.14 93 391.854 93 432.066C93 469.963 122.06 501.191 159.068 504.661C173.592 570.645 232.515 620.174 302.799 620.174H464.497C534.783 620.174 593.709 570.645 608.232 504.661C645.237 501.191 674.299 469.964 674.299 432.066C674.3 391.854 641.585 359.14 601.373 359.14ZM155.69 469.06C139.477 464.569 127.534 449.69 127.534 432.066C127.534 410.898 144.756 393.675 165.926 393.675C169.928 393.675 173.87 394.306 177.619 395.507C164.15 417.262 156.391 442.522 155.69 469.06ZM611.609 469.062C610.909 442.523 603.15 417.261 589.679 395.507C593.429 394.304 597.371 393.675 601.373 393.675C622.543 393.675 639.765 410.898 639.765 432.066C639.765 449.69 627.823 464.569 611.609 469.062Z" fill="#B68125"/>
<path d="M267.567 427.16C267.567 418.876 274.283 412.16 282.567 412.16H375.699V492.831H267.567V427.16Z" fill="#307D99"/>
<path d="M499.619 570.65C499.583 578.934 492.838 585.634 484.553 585.613L391.422 585.384L391.778 504.714L499.91 504.98L499.619 570.65Z" fill="#307D99"/>
<path d="M484.733 412.16C493.017 412.16 499.733 418.876 499.733 427.16V492.831H391.601V412.16H484.733Z" fill="#307D99"/>
<path d="M282.39 585.116C274.105 585.095 267.419 578.363 267.455 570.079L267.742 504.409L375.874 504.677L375.521 585.347L282.39 585.116Z" fill="#307D99"/>
<path fill-rule="evenodd" clip-rule="evenodd" d="M224.969 296.785L216.064 248.01L273.673 237.493L282.577 286.268C282.941 288.263 281.625 290.175 279.636 290.538L229.229 299.741C227.24 300.104 225.333 298.781 224.969 296.785ZM207.517 221.57L272.326 209.738C274.315 209.375 276.222 210.698 276.586 212.694L279.225 227.146C279.589 229.141 278.272 231.053 276.284 231.416L211.474 243.248C209.486 243.611 207.578 242.287 207.214 240.292L204.576 225.84C204.211 223.845 205.528 221.933 207.517 221.57ZM241.219 206.457C240.317 208.271 238.119 209.007 236.31 208.1C234.501 207.193 233.765 204.987 234.666 203.173C234.781 202.943 235.001 202.372 235.198 201.572C235.975 198.411 235.442 195.492 232.819 193.057C227.975 188.558 226.944 182.913 228.302 177.388C228.64 176.017 229.05 174.952 229.39 174.269C230.291 172.455 232.489 171.72 234.298 172.626C236.108 173.533 236.844 175.739 235.942 177.553C235.828 177.783 235.607 178.355 235.411 179.155C234.634 182.316 235.167 185.234 237.789 187.67C242.633 192.168 243.664 197.813 242.306 203.338C241.969 204.709 241.558 205.774 241.219 206.457ZM261.107 202.657C260.307 204.518 258.154 205.375 256.297 204.57C254.441 203.766 253.584 201.604 254.384 199.742C254.434 199.624 254.556 199.254 254.664 198.716C255.097 196.566 254.733 194.567 253.137 192.912C249.633 189.276 248.825 184.852 249.693 180.542C249.91 179.465 250.187 178.621 250.426 178.064C251.226 176.203 253.38 175.346 255.236 176.151C257.093 176.955 257.949 179.117 257.15 180.979C257.099 181.097 256.977 181.467 256.869 182.005C256.436 184.155 256.801 186.154 258.397 187.809C261.901 191.445 262.708 195.869 261.84 200.179C261.623 201.256 261.346 202.1 261.107 202.657ZM221.502 209.887C220.702 211.749 218.548 212.606 216.691 211.801C214.835 210.996 213.978 208.835 214.778 206.973C214.829 206.855 214.95 206.485 215.059 205.947C215.492 203.797 215.127 201.798 213.531 200.142C210.027 196.507 209.219 192.082 210.087 187.772C210.304 186.695 210.581 185.852 210.82 185.295C211.62 183.433 213.774 182.576 215.63 183.381C217.487 184.186 218.344 186.348 217.544 188.209C217.493 188.328 217.372 188.698 217.263 189.235C216.83 191.386 217.195 193.384 218.791 195.04C222.295 198.675 223.103 203.1 222.235 207.41C222.018 208.487 221.741 209.331 221.502 209.887Z" fill="#307D99"/>
<path d="M172.695 383.806C164.58 339.357 194.035 296.746 238.484 288.631L458.751 248.418C503.201 240.303 545.812 269.758 553.927 314.207V314.207L172.695 383.806V383.806Z" fill="#307D99"/>
<mask id="path-13-inside-1_38_734" fill="white">
<path d="M0 381.402C0 171.289 171.387 0.958496 381.5 0.958496V0.958496C591.613 0.958496 763 171.289 763 381.402V381.402H0V381.402Z"/>
</mask>
<path d="M-20 381.402C-20 160.243 159.285 -19.0415 380.443 -19.0415H382.557C603.715 -19.0415 783 160.243 783 381.402H743C743 182.334 581.624 20.9585 382.557 20.9585H380.443C181.376 20.9585 20 182.334 20 381.402H-20ZM763 381.402H0H763ZM-20 381.402C-20 160.243 159.285 -19.0415 380.443 -19.0415V20.9585C181.376 20.9585 20 182.334 20 381.402H-20ZM382.557 -19.0415C603.715 -19.0415 783 160.243 783 381.402H743C743 182.334 581.624 20.9585 382.557 20.9585V-19.0415Z" fill="#0088B9" mask="url(#path-13-inside-1_38_734)"/>
<mask id="path-15-inside-2_38_734" fill="white">
<path d="M763 381.402C763 591.515 591.613 761.845 381.5 761.845V761.845C171.387 761.845 0 591.515 0 381.402V381.402L763 381.402V381.402Z"/>
</mask>
<path d="M783 381.402C783 602.561 603.715 781.845 382.557 781.845H380.443C159.285 781.845 -20 602.561 -20 381.402H20C20 580.469 181.376 741.845 380.443 741.845H382.557C581.624 741.845 743 580.469 743 381.402H783ZM0 381.402L763 381.402L0 381.402ZM783 381.402C783 602.561 603.715 781.845 382.557 781.845V741.845C581.624 741.845 743 580.469 743 381.402H783ZM380.443 781.845C159.285 781.845 -20 602.561 -20 381.402H20C20 580.469 181.376 741.845 380.443 741.845V781.845Z" fill="#EBFF00" mask="url(#path-15-inside-2_38_734)"/>
</svg>
