<svg width="204" height="49" viewBox="0 0 204 49" fill="none" xmlns="http://www.w3.org/2000/svg">
<path d="M102.494 39C135.794 39 162.849 32.3314 164 24C162.849 15.6686 135.794 9 102.494 9C69.198 9 42.1359 15.6686 41 24C42.1321 32.3314 69.1942 39 102.494 39Z" fill="#DAA520"/>
<path d="M102.502 2C55.8359 2 18 11.85 18 24C18 36.149 55.8398 46 102.502 46C149.164 46 187 36.149 187 24C187 11.85 149.164 2 102.502 2ZM102.498 40C68.5567 40 41.0411 33.079 41.0411 24.539C41.0411 24.357 41.1371 24.18 41.1602 24C41.1371 23.82 41.0411 23.642 41.0411 23.461C41.0411 14.921 68.5606 8 102.498 8C136.439 8 163.951 14.921 163.951 23.461C163.951 23.642 163.871 23.82 163.851 24C163.874 24.18 163.951 24.357 163.951 24.539C163.947 33.079 136.439 40 102.498 40Z" fill="#DAA520"/>
<path d="M9.9509 48.5744L5.5151 48.6083L5.2668 18.2345L4.606 18.2081C4.025 18.2146 3.4484 18.1061 2.9095 17.8888C2.3706 17.6715 1.8801 17.3497 1.4661 16.942C1.0521 16.5343 0.722899 16.0488 0.497299 15.5133C0.271799 14.9778 0.1545 14.4029 0.1521 13.8219L0 0.12178L2.9099 0.0837703L3.0196 10.3078L6.008 10.2534L5.9141 0.0450401L8.8084 0.0228801L8.8708 10.2315L11.8597 10.2401L11.797 0L14.723 0.00905037L14.7807 13.7099C14.7994 16.1637 12.8327 18.1608 10.3945 18.1638L9.7341 18.2003L9.9509 48.5744Z" fill="#DAA520"/>
<path d="M199.717 0.000461152C198.035 -0.0197988 196.414 0.628231 195.21 1.80221C194.006 2.97619 193.317 4.58009 193.295 6.26169L193.268 8.38549L193 29.534L199.341 29.6144L199.101 48.6391L203.333 48.7077L203.896 4.28679C203.937 0.996361 203.007 0.042151 201.841 0.027371L199.717 0.000461152Z" fill="#DAA520"/>
<path d="M56.1553 19.0469H59.4502C60.1976 19.0469 60.8288 19.1608 61.3438 19.3887C61.8633 19.6165 62.2575 19.9538 62.5264 20.4004C62.7998 20.8424 62.9365 21.387 62.9365 22.0342C62.9365 22.4899 62.8431 22.9069 62.6562 23.2852C62.474 23.6589 62.2096 23.9779 61.8633 24.2422C61.5215 24.502 61.1113 24.6956 60.6328 24.8232L60.2637 24.9668H57.167L57.1533 23.8936H59.4912C59.9652 23.8936 60.3594 23.8115 60.6738 23.6475C60.9883 23.4788 61.2253 23.2533 61.3848 22.9707C61.5443 22.6882 61.624 22.376 61.624 22.0342C61.624 21.6514 61.5488 21.3164 61.3984 21.0293C61.248 20.7422 61.0111 20.5212 60.6875 20.3662C60.3685 20.2067 59.9561 20.127 59.4502 20.127H57.4746V29H56.1553V19.0469ZM61.9727 29L59.5527 24.4883L60.9268 24.4814L63.3809 28.918V29H61.9727ZM71.1055 27.9268V29H65.835V27.9268H71.1055ZM66.1016 19.0469V29H64.7822V19.0469H66.1016ZM70.4082 23.3262V24.3994H65.835V23.3262H70.4082ZM71.0371 19.0469V20.127H65.835V19.0469H71.0371ZM78.0439 26.4844C78.0439 26.252 78.0075 26.0469 77.9346 25.8691C77.8662 25.6868 77.7432 25.5228 77.5654 25.377C77.3923 25.2311 77.1507 25.0921 76.8408 24.96C76.5355 24.8278 76.1481 24.6934 75.6787 24.5566C75.1865 24.4108 74.7422 24.249 74.3457 24.0713C73.9492 23.889 73.6097 23.6816 73.3271 23.4492C73.0446 23.2168 72.8281 22.9502 72.6777 22.6494C72.5273 22.3486 72.4521 22.0046 72.4521 21.6172C72.4521 21.2298 72.5319 20.8721 72.6914 20.5439C72.8509 20.2158 73.0788 19.931 73.375 19.6895C73.6758 19.4434 74.0335 19.252 74.4482 19.1152C74.863 18.9785 75.3255 18.9102 75.8359 18.9102C76.5833 18.9102 77.2168 19.0537 77.7363 19.3408C78.2604 19.6234 78.6592 19.9948 78.9326 20.4551C79.2061 20.9108 79.3428 21.3984 79.3428 21.918H78.0303C78.0303 21.5443 77.9505 21.2139 77.791 20.9268C77.6315 20.6351 77.39 20.4072 77.0664 20.2432C76.7428 20.0745 76.3327 19.9902 75.8359 19.9902C75.3665 19.9902 74.9792 20.0609 74.6738 20.2021C74.3685 20.3434 74.1406 20.5348 73.9902 20.7764C73.8444 21.0179 73.7715 21.2936 73.7715 21.6035C73.7715 21.8132 73.8148 22.0046 73.9014 22.1777C73.9925 22.3464 74.1315 22.5036 74.3184 22.6494C74.5098 22.7952 74.7513 22.9297 75.043 23.0527C75.3392 23.1758 75.6924 23.2943 76.1025 23.4082C76.6676 23.5677 77.1553 23.7454 77.5654 23.9414C77.9756 24.1374 78.3128 24.3584 78.5771 24.6045C78.846 24.846 79.0443 25.1217 79.1719 25.4316C79.304 25.737 79.3701 26.0833 79.3701 26.4707C79.3701 26.8763 79.2881 27.2432 79.124 27.5713C78.96 27.8994 78.7253 28.1797 78.4199 28.4121C78.1146 28.6445 77.7477 28.8245 77.3193 28.9521C76.8955 29.0752 76.4215 29.1367 75.8975 29.1367C75.4372 29.1367 74.9837 29.0729 74.5371 28.9453C74.0951 28.8177 73.6917 28.6263 73.3271 28.3711C72.9671 28.1159 72.6777 27.8014 72.459 27.4277C72.2448 27.0495 72.1377 26.612 72.1377 26.1152H73.4502C73.4502 26.457 73.5163 26.751 73.6484 26.9971C73.7806 27.2386 73.9606 27.4391 74.1885 27.5986C74.4209 27.7581 74.6829 27.8766 74.9746 27.9541C75.2708 28.027 75.5785 28.0635 75.8975 28.0635C76.3577 28.0635 76.7474 27.9997 77.0664 27.8721C77.3854 27.7445 77.627 27.5622 77.791 27.3252C77.9596 27.0882 78.0439 26.8079 78.0439 26.4844ZM84.7295 19.0469V29H83.4307V19.0469H84.7295ZM87.9287 19.0469V20.127H80.2383V19.0469H87.9287ZM92.543 19.9287L89.248 29H87.9014L91.6953 19.0469H92.5635L92.543 19.9287ZM95.3047 29L92.0029 19.9287L91.9824 19.0469H92.8506L96.6582 29H95.3047ZM95.1338 25.3154V26.3955H89.542V25.3154H95.1338ZM103.562 19.0469H104.875V25.7803C104.875 26.5277 104.709 27.1497 104.376 27.6465C104.043 28.1432 103.601 28.5169 103.05 28.7676C102.503 29.0137 101.908 29.1367 101.266 29.1367C100.591 29.1367 99.9805 29.0137 99.4336 28.7676C98.8913 28.5169 98.4606 28.1432 98.1416 27.6465C97.8271 27.1497 97.6699 26.5277 97.6699 25.7803V19.0469H98.9756V25.7803C98.9756 26.2998 99.0713 26.7282 99.2627 27.0654C99.4541 27.4027 99.7207 27.6533 100.062 27.8174C100.409 27.9814 100.81 28.0635 101.266 28.0635C101.726 28.0635 102.127 27.9814 102.469 27.8174C102.815 27.6533 103.084 27.4027 103.275 27.0654C103.467 26.7282 103.562 26.2998 103.562 25.7803V19.0469ZM106.946 19.0469H110.241C110.989 19.0469 111.62 19.1608 112.135 19.3887C112.654 19.6165 113.049 19.9538 113.317 20.4004C113.591 20.8424 113.728 21.387 113.728 22.0342C113.728 22.4899 113.634 22.9069 113.447 23.2852C113.265 23.6589 113.001 23.9779 112.654 24.2422C112.312 24.502 111.902 24.6956 111.424 24.8232L111.055 24.9668H107.958L107.944 23.8936H110.282C110.756 23.8936 111.15 23.8115 111.465 23.6475C111.779 23.4788 112.016 23.2533 112.176 22.9707C112.335 22.6882 112.415 22.376 112.415 22.0342C112.415 21.6514 112.34 21.3164 112.189 21.0293C112.039 20.7422 111.802 20.5212 111.479 20.3662C111.16 20.2067 110.747 20.127 110.241 20.127H108.266V29H106.946V19.0469ZM112.764 29L110.344 24.4883L111.718 24.4814L114.172 28.918V29H112.764ZM119.258 19.9287L115.963 29H114.616L118.41 19.0469H119.278L119.258 19.9287ZM122.02 29L118.718 19.9287L118.697 19.0469H119.565L123.373 29H122.02ZM121.849 25.3154V26.3955H116.257V25.3154H121.849ZM132.362 19.0469V29H131.036L126.025 21.3232V29H124.706V19.0469H126.025L131.057 26.7441V19.0469H132.362ZM138.173 19.0469V29H136.874V19.0469H138.173ZM141.372 19.0469V20.127H133.682V19.0469H141.372ZM149.172 27.9268V29H143.901V27.9268H149.172ZM144.168 19.0469V29H142.849V19.0469H144.168ZM148.475 23.3262V24.3994H143.901V23.3262H148.475ZM149.104 19.0469V20.127H143.901V19.0469H149.104Z" fill="black"/>
</svg>
